:FULLY-SPECIFIED
:FORCE-ALL-JOINTS-BE-3DOF
:DEGREES
1733
root -5.26703 15.1331 25.0541 -0.698638 -13.6359 -2.14018
lfemur -36.527 4.27254 -13.586
ltibia 62.6087 -0 0
lfoot -14.189 15.1726 -1.52691
ltoes -33.3629 0 0
rfemur -38.6198 -12.471 21.3072
rtibia 50.2864 -0 0
rfoot -13.3736 -20.7753 0.135075
rtoes -5.3221 0 0
lowerback 17.7465 1.90865 -1.38631
upperback 0.523899 2.55551 3.41884
thorax -8.76814 1.30119 4.00177
lowerneck 1.76593 -10.4931 -10.8325
upperneck 0.39592 -14.5755 13.2986
head 2.28823 -7.32732 5.73822
lclavicle 2.2414e-14 -2.63938e-14 1.04824e-30
lhumerus -25.8211 -42.5481 97.5867
lradius 99.1979 -0 0
lwrist 3.66688 0 0
lhand 21.7664 34.6333 -2.14099
lfingers 7.12502 -0 0
lthumb 41.9172 34.5302 -10.784
rclavicle 2.2414e-14 -2.63938e-14 1.04824e-30
rhumerus 50.8671 19.7124 -27.6701
rradius 85.1317 -0 0
rwrist -28.5774 0 0
rhand 2.24426 -40.2912 1.60005
rfingers 7.12502 -0 0
rthumb 27.6185 -67.0389 1.94184
1734
root -5.16321 15.1362 25.1111 -0.857956 -11.6385 -2.18857
lfemur -36.8022 4.36461 -13.4582
ltibia 62.5642 -0 0
lfoot -13.824 14.9141 -1.5335
ltoes -33.311 0 0
rfemur -38.2545 -12.5788 21.4079
rtibia 50.4484 -0 0
rfoot -13.5002 -20.8407 0.135653
rtoes -5.54195 0 0
lowerback 17.7211 1.99391 -1.23936
upperback 0.498419 2.69797 3.3793
thorax -8.78134 1.36367 3.83865
lowerneck 1.61948 -10.3335 -10.7183
upperneck 0.562164 -14.3522 13.1301
head 2.31821 -7.20868 5.67804
lclavicle 2.23261e-14 -2.56638e-14 1.05272e-30
lhumerus -26.0159 -42.3568 97.7394
lradius 99.3736 -0 0
lwrist 2.89582 0 0
lhand 22.5904 34.4688 -2.15046
lfingers 7.12502 -0 0
lthumb 42.6613 33.5635 -10.8334
rclavicle 2.23261e-14 -2.56638e-14 1.05272e-30
rhumerus 50.7652 19.6366 -27.8785
rradius 84.5772 -0 0
rwrist -28.5583 0 0
rhand 1.83085 -40.5308 1.60697
rfingers 7.12502 -0 0
rthumb 27.2223 -67.3426 1.95023
1735
root -5.0594 15.1394 25.168 -1.01795 -9.64124 -2.24227
lfemur -37.0773 4.45729 -13.3307
ltibia 62.5197 -0 0
lfoot -13.4589 14.6555 -1.53844
ltoes -33.2591 0 0
rfemur -37.8892 -12.6871 21.508
rtibia 50.6105 -0 0
rfoot -13.6268 -20.9061 0.136086
rtoes -5.76179 0 0
lowerback 17.6959 2.07923 -1.09244
upperback 0.472838 2.84041 3.33968
thorax -8.79472 1.42612 3.67552
lowerneck 1.47342 -10.1737 -10.6046
upperneck 0.727566 -14.1284 12.9624
head 2.34805 -7.09 5.61794
lclavicle 2.22382e-14 -2.49338e-14 1.05608e-30
lhumerus -26.2094 -42.1651 97.8907
lradius 99.5493 -0 0
lwrist 2.12476 0 0
lhand 23.4145 34.3043 -2.15756
lfingers 7.12502 -0 0
lthumb 43.4062 32.596 -10.8705
rclavicle 2.22382e-14 -2.49338e-14 1.05608e-30
rhumerus 50.6636 19.5604 -28.0867
rradius 84.0227 -0 0
rwrist -28.5391 0 0
rhand 1.41741 -40.7703 1.61215
rfingers 7.12502 -0 0
rthumb 26.8261 -67.6463 1.95653
1736
root -4.95559 15.1426 25.225 -1.17898 -7.64411 -2.30132
lfemur -37.3521 4.55059 -13.2038
ltibia 62.4752 -0 0
lfoot -13.0939 14.3969 -1.54173
ltoes -33.2073 0 0
rfemur -37.524 -12.7961 21.6073
rtibia 50.7726 -0 0
rfoot -13.7534 -20.9714 0.136375
rtoes -5.98163 0 0
lowerback 17.6709 2.16462 -0.945557
upperback 0.447155 2.98284 3.3
thorax -8.80827 1.48853 3.51236
lowerneck 1.32776 -10.0137 -10.4914
upperneck 0.89213 -13.9042 12.7955
head 2.37776 -6.9713 5.55792
lclavicle 2.21503e-14 -2.42038e-14 1.05832e-30
lhumerus -26.4016 -41.973 98.0407
lradius 99.725 -0 0
lwrist 1.35369 0 0
lhand 24.2385 34.1396 -2.16229
lfingers 7.12502 -0 0
lthumb 44.1517 31.6281 -10.8953
rclavicle 2.21503e-14 -2.42038e-14 1.05832e-30
rhumerus 50.5624 19.4839 -28.2946
rradius 83.4682 -0 0
rwrist -28.52 0 0
rhand 1.00396 -41.0099 1.61561
rfingers 7.12502 -0 0
rthumb 26.4298 -67.95 1.96073
1737
root -4.85178 15.1457 25.282 -1.34142 -5.64715 -2.36577
lfemur -37.6268 4.64448 -13.0772
ltibia 62.4307 -0 0
lfoot -12.7288 14.1383 -1.54338
ltoes -33.1554 0 0
rfemur -37.1587 -12.9056 21.706
rtibia 50.9347 -0 0
rfoot -13.88 -21.0368 0.13652
rtoes -6.20148 0 0
lowerback 17.6462 2.25007 -0.798698
upperback 0.42137 3.12524 3.26025
thorax -8.82201 1.55089 3.34919
lowerneck 1.18249 -9.85329 -10.3786
upperneck 1.05586 -13.6795 12.6294
head 2.40734 -6.85256 5.49797
lclavicle 2.20624e-14 -2.34737e-14 1.05944e-30
lhumerus -26.5925 -41.7806 98.1894
lradius 99.9007 -0 0
lwrist 0.582631 0 0
lhand 25.0626 33.9749 -2.16466
lfingers 7.12502 -0 0
lthumb 44.8976 30.6598 -10.9077
rclavicle 2.20624e-14 -2.34737e-14 1.05944e-30
rhumerus 50.4615 19.4071 -28.5023
rradius 82.9137 -0 0
rwrist -28.5008 0 0
rhand 0.590486 -41.2495 1.61734
rfingers 7.12502 -0 0
rthumb 26.0335 -68.2538 1.96283
1738
root -4.74797 15.1489 25.3389 -1.50566 -3.65038 -2.4357
lfemur -37.9013 4.73898 -12.9511
ltibia 62.3861 -0 0
lfoot -12.3638 13.8797 -1.54338
ltoes -33.1035 0 0
rfemur -36.7936 -13.0158 21.804
rtibia 51.0967 -0 0
rfoot -14.0066 -21.1022 0.13652
rtoes -6.42132 0 0
lowerback 17.6217 2.33558 -0.651868
upperback 0.395482 3.26763 3.22043
thorax -8.83592 1.61322 3.186
lowerneck 1.03761 -9.69264 -10.2663
upperneck 1.21877 -13.4543 12.4642
head 2.43679 -6.73379 5.43811
lclavicle 2.19746e-14 -2.27437e-14 1.05944e-30
lhumerus -26.7822 -41.5878 98.3368
lradius 100.076 -0 0
lwrist -0.188431 0 0
lhand 25.8866 33.8102 -2.16466
lfingers 7.12502 -0 0
lthumb 45.6437 29.6915 -10.9077
rclavicle 2.19746e-14 -2.27437e-14 1.05944e-30
rhumerus 50.3609 19.3299 -28.7097
rradius 82.3591 -0 0
rwrist -28.4817 0 0
rhand 0.177014 -41.4892 1.61734
rfingers 7.12502 -0 0
rthumb 25.6372 -68.5576 1.96283
1739
root -4.64415 15.152 25.3959 -1.67207 -1.65383 -2.51125
lfemur -38.1757 4.83409 -12.8254
ltibia 62.3416 -0 0
lfoot -11.9987 13.621 -1.54173
ltoes -33.0516 0 0
rfemur -36.4284 -13.1266 21.9014
rtibia 51.2588 -0 0
rfoot -14.1332 -21.1676 0.136375
rtoes -6.64117 0 0
lowerback 17.5974 2.42116 -0.505065
upperback 0.369491 3.41 3.18054
thorax -8.85001 1.67551 3.02278
lowerneck 0.893122 -9.53172 -10.1545
upperneck 1.38086 -13.2287 12.2998
head 2.4661 -6.615 5.37831
lclavicle 2.18867e-14 -2.20137e-14 1.05832e-30
lhumerus -26.9707 -41.3946 98.4829
lradius 100.252 -0 0
lwrist -0.959493 0 0
lhand 26.7107 33.6455 -2.16229
lfingers 7.12502 -0 0
lthumb 46.3896 28.7232 -10.8953
rclavicle 2.18867e-14 -2.20137e-14 1.05832e-30
rhumerus 50.2607 19.2523 -28.9169
rradius 81.8046 -0 0
rwrist -28.4625 0 0
rhand -0.236455 -41.7288 1.61561
rfingers 7.12502 -0 0
rthumb 25.2409 -68.8614 1.96073
1740
root -4.54034 15.1552 25.4529 -1.84105 0.3425 -2.59257
lfemur -38.4499 4.92979 -12.7002
ltibia 62.2971 -0 0
lfoot -11.6337 13.3624 -1.53844
ltoes -32.9998 0 0
rfemur -36.0633 -13.238 21.998
rtibia 51.4209 -0 0
rfoot -14.2599 -21.2329 0.136086
rtoes -6.86101 0 0
lowerback 17.5733 2.5068 -0.35829
upperback 0.343398 3.55235 3.14058
thorax -8.86428 1.73776 2.85955
lowerneck 0.749018 -9.37051 -10.0431
upperneck 1.54214 -13.0026 12.1362
head 2.49528 -6.49617 5.3186
lclavicle 2.17988e-14 -2.12837e-14 1.05608e-30
lhumerus -27.158 -41.2011 98.6278
lradius 100.428 -0 0
lwrist -1.73056 0 0
lhand 27.5347 33.4808 -2.15756
lfingers 7.12502 -0 0
lthumb 47.1351 27.7553 -10.8705
rclavicle 2.17988e-14 -2.12837e-14 1.05608e-30
rhumerus 50.1609 19.1745 -29.1238
rradius 81.2501 -0 0
rwrist -28.4434 0 0
rhand -0.649913 -41.9684 1.61215
rfingers 7.12502 -0 0
rthumb 24.8447 -69.1651 1.95653
1741
root -4.43653 15.1584 25.5098 -2.013 2.33858 -2.67984
lfemur -38.7239 5.02608 -12.5754
ltibia 62.2526 -0 0
lfoot -11.2686 13.1039 -1.5335
ltoes -32.9479 0 0
rfemur -35.6982 -13.35 22.094
rtibia 51.583 -0 0
rfoot -14.3865 -21.2983 0.135653
rtoes -7.08085 0 0
lowerback 17.5494 2.5925 -0.21154
upperback 0.3172 3.69469 3.10055
thorax -8.87872 1.79997 2.69629
lowerneck 0.605298 -9.20903 -9.93217
upperneck 1.7026 -12.776 11.9734
head 2.52433 -6.37731 5.25895
lclavicle 2.17109e-14 -2.05537e-14 1.05272e-30
lhumerus -27.3441 -41.0072 98.7713
lradius 100.604 -0 0
lwrist -2.50162 0 0
lhand 28.3588 33.3163 -2.15046
lfingers 7.12502 -0 0
lthumb 47.88 26.7878 -10.8334
rclavicle 2.17109e-14 -2.05537e-14 1.05272e-30
rhumerus 50.0614 19.0963 -29.3305
rradius 80.6956 -0 0
rwrist -28.4242 0 0
rhand -1.06335 -42.2079 1.60697
rfingers 7.12502 -0 0
rthumb 24.4484 -69.4688 1.95023
1742
root -4.33272 15.1615 25.5668 -2.18834 4.33438 -2.7733
lfemur -38.9977 5.12297 -12.451
ltibia 62.2081 -0 0
lfoot -10.9036 12.8453 -1.52691
ltoes -32.896 0 0
rfemur -35.3331 -13.4626 22.1893
rtibia 51.745 -0 0
rfoot -14.5131 -21.3637 0.135075
rtoes -7.3007 0 0
lowerback 17.5257 2.67826 -0.0648164
upperback 0.290899 3.837 3.06045
thorax -8.89334 1.86213 2.53302
lowerneck 0.46196 -9.04728 -9.82172
upperneck 1.86227 -12.5491 11.8113
head 2.55325 -6.25842 5.19939
lclavicle 2.1623e-14 -1.98236e-14 1.04824e-30
lhumerus -27.529 -40.813 98.9136
lradius 100.779 -0 0
lwrist -3.27268 0 0
lhand 29.1828 33.1518 -2.14099
lfingers 7.12502 -0 0
lthumb 48.6241 25.8211 -10.784
rclavicle 2.1623e-14 -1.98236e-14 1.04824e-30
rhumerus 49.9622 19.0177 -29.537
rradius 80.1411 -0 0
rwrist -28.4051 0 0
rhand -1.47676 -42.4475 1.60005
rfingers 7.12502 -0 0
rthumb 24.0522 -69.7725 1.94184
1743
root -4.22891 15.1647 25.6238 -2.36754 6.32988 -2.8732
lfemur -39.2714 5.22045 -12.3271
ltibia 62.1636 -0 0
lfoot -10.5387 12.5868 -1.51867
ltoes -32.8441 0 0
rfemur -34.968 -13.5758 22.2839
rtibia 51.9071 -0 0
rfoot -14.6397 -21.429 0.134353
rtoes -7.52054 0 0
lowerback 17.5023 2.76409 0.0818823
upperback 0.264493 3.9793 3.02027
thorax -8.90815 1.92425 2.36972
lowerneck 0.319002 -8.88525 -9.71172
upperneck 2.02113 -12.3217 11.6501
head 2.58204 -6.13951 5.13989
lclavicle 2.15351e-14 -1.90936e-14 1.04264e-30
lhumerus -27.7127 -40.6184 99.0547
lradius 100.955 -0 0
lwrist -4.04374 0 0
lhand 30.0067 32.9875 -2.12917
lfingers 7.12502 -0 0
lthumb 49.3671 24.8553 -10.7222
rclavicle 2.15351e-14 -1.90936e-14 1.04264e-30
rhumerus 49.8634 18.9388 -29.7432
rradius 79.5865 -0 0
rwrist -28.3859 0 0
rhand -1.89014 -42.6869 1.59141
rfingers 7.12502 -0 0
rthumb 23.6561 -70.0761 1.93134
